<svg xmlns="http://www.w3.org/2000/svg" enable-background="new 0 0 512 512" viewBox="0 0 512 512" id="guide-book"><path d="M453.698,21.621c0-11.876-9.638-21.54-21.488-21.54c-111.153,0-222.02,0-333.462,0
				c-22.311,0-40.466,18.151-40.466,40.466v430.911c0,22.311,18.151,40.461,40.461,40.461H432.22
				c11.856,0,21.498-9.643,21.498-21.498C453.702,106.197,453.698,22.2,453.698,21.621z M443.035,21.621v409.366H125.76V10.744
				h306.45C438.177,10.744,443.035,15.623,443.035,21.621z M68.944,444.113V40.547c0-16.432,13.371-29.803,29.803-29.803h16.339
				v420.248H98.748C87.211,430.992,76.224,436.177,68.944,444.113z M432.22,501.256H98.742c-16.432,0-29.798-13.366-29.798-29.798
				c0-16.391,13.328-29.793,29.798-29.793h344.313v24.461H120.428c-2.947,0-5.332,2.385-5.332,5.332
				c0,2.947,2.385,5.332,5.332,5.332h322.627v13.631C443.056,496.393,438.193,501.256,432.22,501.256z"></path><path d="M284.392,339.39c65.354,0,118.525-53.171,118.525-118.525c0-65.36-53.171-118.53-118.525-118.53
				c-65.36,0-118.53,53.171-118.53,118.53C165.862,286.22,219.033,339.39,284.392,339.39z M284.392,112.998
				c59.476,0,107.862,48.391,107.862,107.867s-48.386,107.862-107.862,107.862s-107.867-48.386-107.867-107.862
				S224.916,112.998,284.392,112.998z"></path><path d="M241.583,281.487l58.83-32.386c5.149-2.843,9.372-7.065,12.215-12.215l32.38-58.815
				c6.373-11.516-6.342-24.179-17.807-17.833l-58.83,32.391c-5.155,2.838-9.377,7.06-12.215,12.215l-32.386,58.82
				C217.421,275.138,230.104,287.834,241.583,281.487z M233.106,268.819l32.391-58.83c1.864-3.384,4.634-6.154,8.018-8.018
				l58.841-32.396c2.162-1.207,4.519,1.169,3.322,3.322c0,0.005-0.005,0.01-0.005,0.016l-32.386,58.83
				c-1.864,3.379-4.639,6.154-8.018,8.018l-58.846,32.391C234.242,273.363,231.913,270.975,233.106,268.819z"></path><path d="M284.392,235.897c8.289,0,15.032-6.743,15.032-15.032c0-8.289-6.743-15.032-15.032-15.032
				c-8.289,0-15.032,6.743-15.032,15.032C269.36,229.154,276.103,235.897,284.392,235.897z M284.392,216.497
				c2.411,0,4.368,1.958,4.368,4.368c0,2.411-1.958,4.368-4.368,4.368c-2.411,0-4.368-1.958-4.368-4.368
				C280.024,218.455,281.981,216.497,284.392,216.497z"></path></svg>