<svg viewBox="0 0 50 50" xml:space="preserve" xmlns="http://www.w3.org/2000/svg" enable-background="new 0 0 50 50"><path d="M25 49c13.233 0 24-10.767 24-24S38.233 1 25 1 1 11.767 1 25s10.767 24 24 24zm0-46c12.131 0 22 9.869 22 22s-9.869 22-22 22S3 37.131 3 25 12.869 3 25 3z" fill="#0e1a2f" class="fill-000000"></path><path d="M38.925 11.075 20.42 19.006 30.994 29.58l7.931-18.505zm-15.002 8.606 11.194-4.798-4.798 11.194-6.396-6.396zM19.006 20.42l-7.931 18.505 18.505-7.931L19.006 20.42zm.675 3.503 6.396 6.396-11.194 4.798 4.798-11.194z" fill="#0e1a2f" class="fill-000000"></path></svg>