<svg width="455" height="101" viewBox="0 0 455 101" fill="none" xmlns="http://www.w3.org/2000/svg">
<path d="M16.4756 80.4201L1.86128 80.4179C0.393033 80.4241 0.0529557 78.9637 0.532786 77.8418L32.7305 2.51548C33.2578 1.30382 33.9573 0.721295 35.6233 0.714257L48.0277 0.661855C50 0.661854 52.5249 1.72008 51.2336 4.59667L35.4716 41.4109L20.0903 77.7901C19.5 79.647 18.1329 80.4201 16.4756 80.4201Z" fill="#0E1A2F"/>
<path d="M79.6012 80.4264L64.7155 80.4082C62.9998 80.4082 61.9998 80.147 61.1925 78.2047L48 47.1472C47.1302 44.6373 47.7834 42.649 48.4784 41.0092L54 27.647C54.9999 25.1468 58.0127 25.318 58.6025 27.165L80.7815 78.122C81.5011 79.7509 80.1947 80.4235 79.6012 80.4264Z" fill="#0E1A2F"/>
<path d="M38.5 59.5139L30.3334 78.6307C30.0244 79.3502 30.6783 80.525 31.4615 80.5216L40.3657 80.5327L49.8635 80.5443C50.6428 80.541 51.0428 79.5892 50.7371 78.8736L42.2928 59.4976C41.5996 57.8835 39.1915 57.8993 38.5 59.5139Z" fill="#0E1A2F"/>
<path d="M103 80.1136L133.185 15.4886H146.906L177.275 80.1136H160.352L152.577 62.3303L159.072 67.0053H121.203L127.606 62.3303L119.922 80.1136H103ZM139.954 32.9053L129.252 58.4803L126.691 54.172H153.492L151.205 58.4803L140.412 32.9053H139.954Z" fill="#0E1A2F"/>
<path d="M180.344 80.1136V12.647H196.626V80.1136H180.344Z" fill="#0E1A2F"/>
<path d="M229.472 100.647C224.837 100.647 220.751 100.219 217.215 99.3636C213.739 98.5692 210.598 97.3164 207.793 95.6053L210.629 84.0553C212.275 85.0331 214.074 85.8581 216.025 86.5303C217.977 87.2025 219.989 87.6914 222.062 87.997C224.197 88.3636 226.209 88.547 228.1 88.547C232.002 88.547 234.899 87.6303 236.789 85.797C238.68 84.0247 239.625 81.4886 239.625 78.1886V70.0303H240.54C239.564 72.7192 237.643 74.8886 234.777 76.5386C231.911 78.1275 228.74 78.922 225.264 78.922C221.117 78.922 217.489 78.0053 214.379 76.172C211.33 74.2775 208.921 71.5886 207.153 68.1053C205.445 64.622 204.591 60.497 204.591 55.7303C204.591 50.9636 205.445 46.8386 207.153 43.3553C208.921 39.872 211.33 37.2136 214.379 35.3803C217.489 33.4859 221.117 32.5386 225.264 32.5386C228.862 32.5386 232.033 33.3331 234.777 34.922C237.521 36.5109 239.381 38.6192 240.357 41.247L239.625 41.0636L240.631 33.547H256.273C256.029 35.6248 255.846 37.7331 255.724 39.872C255.602 42.0109 255.541 44.1192 255.541 46.197V76.3553C255.541 84.1775 253.315 90.1664 248.863 94.322C244.412 98.5386 237.948 100.647 229.472 100.647ZM230.295 66.822C233.1 66.822 235.326 65.8748 236.972 63.9803C238.619 62.0859 239.442 59.3359 239.442 55.7303C239.442 52.0636 238.619 49.3136 236.972 47.4803C235.326 45.5859 233.1 44.6386 230.295 44.6386C227.429 44.6386 225.172 45.5859 223.526 47.4803C221.88 49.3136 221.056 52.0636 221.056 55.7303C221.056 59.3359 221.88 62.0859 223.526 63.9803C225.172 65.8748 227.429 66.822 230.295 66.822Z" fill="#0E1A2F"/>
<path d="M288.796 81.122C283.612 81.122 279.13 80.1442 275.349 78.1886C271.569 76.2331 268.641 73.4525 266.568 69.847C264.495 66.1803 263.458 61.8414 263.458 56.8303C263.458 51.7581 264.495 47.4192 266.568 43.8136C268.641 40.2081 271.569 37.4275 275.349 35.472C279.13 33.5164 283.612 32.5386 288.796 32.5386C293.918 32.5386 298.37 33.5164 302.15 35.472C305.931 37.4275 308.858 40.2386 310.932 43.9053C313.005 47.5109 314.042 51.8192 314.042 56.8303C314.042 61.7803 313.005 66.0886 310.932 69.7553C308.858 73.422 305.931 76.2331 302.15 78.1886C298.37 80.1442 293.918 81.122 288.796 81.122ZM288.796 69.022C291.479 69.022 293.613 68.0748 295.199 66.1803C296.784 64.2248 297.577 61.1081 297.577 56.8303C297.577 52.5525 296.784 49.4664 295.199 47.572C293.613 45.6164 291.479 44.6386 288.796 44.6386C286.051 44.6386 283.887 45.6164 282.301 47.572C280.716 49.4664 279.923 52.5525 279.923 56.8303C279.923 61.1081 280.716 64.2248 282.301 66.1803C283.887 68.0748 286.051 69.022 288.796 69.022Z" fill="#0E1A2F"/>
<path d="M322.017 80.1136V46.197C322.017 44.1192 321.956 42.0109 321.834 39.872C321.712 37.7331 321.529 35.6248 321.285 33.547H337.018L337.933 41.6136H336.927C338.268 38.8025 340.25 36.6025 342.872 35.0136C345.494 33.3636 348.574 32.5386 352.111 32.5386C355.526 32.5386 358.422 33.3636 360.801 35.0136C363.24 36.6025 365.008 39.1386 366.106 42.622H364.551C366.075 39.4442 368.271 36.9692 371.137 35.197C374.064 33.4248 377.326 32.5386 380.924 32.5386C386.229 32.5386 390.193 34.1581 392.815 37.397C395.438 40.5748 396.749 45.5553 396.749 52.3386V80.1136H380.375V52.8886C380.375 50.0164 379.948 47.9998 379.095 46.8386C378.241 45.6164 376.869 45.0053 374.979 45.0053C372.6 45.0053 370.74 45.8609 369.399 47.572C368.118 49.2831 367.478 51.6359 367.478 54.6303V80.1136H351.196V52.8886C351.196 50.0164 350.739 47.9998 349.824 46.8386C348.97 45.6164 347.629 45.0053 345.799 45.0053C343.421 45.0053 341.561 45.8609 340.22 47.572C338.939 49.2831 338.299 51.6359 338.299 54.6303V80.1136H322.017Z" fill="#0E1A2F"/>
<path d="M429.754 81.122C424.571 81.122 420.089 80.1442 416.308 78.1886C412.527 76.2331 409.6 73.4525 407.527 69.847C405.453 66.1803 404.417 61.8414 404.417 56.8303C404.417 51.7581 405.453 47.4192 407.527 43.8136C409.6 40.2081 412.527 37.4275 416.308 35.472C420.089 33.5164 424.571 32.5386 429.754 32.5386C434.876 32.5386 439.328 33.5164 443.109 35.472C446.89 37.4275 449.817 40.2386 451.89 43.9053C453.963 47.5109 455 51.8192 455 56.8303C455 61.7803 453.963 66.0886 451.89 69.7553C449.817 73.422 446.89 76.2331 443.109 78.1886C439.328 80.1442 434.876 81.122 429.754 81.122ZM429.754 69.022C432.437 69.022 434.571 68.0748 436.157 66.1803C437.742 64.2248 438.535 61.1081 438.535 56.8303C438.535 52.5525 437.742 49.4664 436.157 47.572C434.571 45.6164 432.437 44.6386 429.754 44.6386C427.01 44.6386 424.845 45.6164 423.26 47.572C421.674 49.4664 420.881 52.5525 420.881 56.8303C420.881 61.1081 421.674 64.2248 423.26 66.1803C424.845 68.0748 427.01 69.022 429.754 69.022Z" fill="#0E1A2F"/>
</svg>
