<svg width="428" height="104" viewBox="0 0 428 104" fill="none" xmlns="http://www.w3.org/2000/svg">
<path d="M138.035 68.6951H114.405L110.961 78.6538C110.682 79.4596 109.923 80.0001 109.071 80.0001H99.4216C98.7294 80.0001 98.2465 79.3137 98.4805 78.6621L118.86 21.9092C119.145 21.1149 119.898 20.5851 120.742 20.5851H131.783C132.627 20.5851 133.38 21.1149 133.665 21.9092L154.045 78.6621C154.279 79.3137 153.796 80.0001 153.103 80.0001H143.37C142.517 80.0001 141.758 79.4596 141.479 78.6538L138.035 68.6951ZM133.44 59.1751C134.116 59.1751 134.598 58.5184 134.394 57.8739L127.174 35.0184C126.879 34.0867 125.561 34.0867 125.266 35.0184L118.046 57.8739C117.842 58.5184 118.324 59.1751 119 59.1751H133.44Z" fill="white"/>
<path d="M171.4 17.1001C172.504 17.1001 173.4 17.9955 173.4 19.1001V78.0001C173.4 79.1047 172.504 80.0001 171.4 80.0001H163.5C162.395 80.0001 161.5 79.1047 161.5 78.0001V19.1001C161.5 17.9955 162.395 17.1001 163.5 17.1001H171.4Z" fill="white"/>
<path d="M202.602 32.1451C206.115 32.1451 209.204 32.8534 211.867 34.2701C214.53 35.6301 216.627 37.4151 218.157 39.6251V33.9101C218.157 33.3578 218.605 32.9101 219.157 32.9101H229.142C229.694 32.9101 230.142 33.3578 230.142 33.9101V80.3401C230.142 84.7034 229.264 88.5851 227.507 91.9851C225.75 95.4418 223.115 98.1618 219.602 100.145C216.089 102.185 211.839 103.205 206.852 103.205C200.165 103.205 194.669 101.647 190.362 98.5301C186.406 95.6292 184.046 91.7464 183.281 86.8818C183.189 86.2953 183.654 85.7801 184.248 85.7801H193.449C194.339 85.7801 195.1 86.3815 195.489 87.1823C196.219 88.6851 197.372 89.9177 198.947 90.8801C201.044 92.1834 203.565 92.8351 206.512 92.8351C209.969 92.8351 212.774 91.7868 214.927 89.6901C217.08 87.6501 218.157 84.5334 218.157 80.3401V73.0301C216.627 75.2401 214.502 77.0818 211.782 78.5551C209.119 80.0284 206.059 80.7651 202.602 80.7651C198.635 80.7651 195.009 79.7451 191.722 77.7051C188.435 75.6651 185.829 72.8034 183.902 69.1201C182.032 65.3801 181.097 61.1018 181.097 56.2851C181.097 51.5251 182.032 47.3034 183.902 43.6201C185.829 39.9368 188.407 37.1034 191.637 35.1201C194.924 33.1368 198.579 32.1451 202.602 32.1451ZM218.157 56.4551C218.157 53.5651 217.59 51.1001 216.457 49.0601C215.324 46.9634 213.794 45.3768 211.867 44.3001C209.94 43.1668 207.872 42.6001 205.662 42.6001C203.452 42.6001 201.412 43.1384 199.542 44.2151C197.672 45.2918 196.142 46.8784 194.952 48.9751C193.819 51.0151 193.252 53.4518 193.252 56.2851C193.252 59.1184 193.819 61.6118 194.952 63.7651C196.142 65.8618 197.672 67.4768 199.542 68.6101C201.469 69.7434 203.509 70.3101 205.662 70.3101C207.872 70.3101 209.94 69.7718 211.867 68.6951C213.794 67.5618 215.324 65.9751 216.457 63.9351C217.59 61.8384 218.157 59.3451 218.157 56.4551Z" fill="white"/>
<path d="M261.674 80.7651C257.141 80.7651 253.061 79.7734 249.434 77.7901C245.808 75.7501 242.946 72.8884 240.849 69.2051C238.809 65.5218 237.789 61.2718 237.789 56.4551C237.789 51.6384 238.838 47.3884 240.934 43.7051C243.088 40.0218 246.006 37.1884 249.689 35.2051C253.373 33.1651 257.481 32.1451 262.014 32.1451C266.548 32.1451 270.656 33.1651 274.339 35.2051C278.023 37.1884 280.913 40.0218 283.009 43.7051C285.163 47.3884 286.239 51.6384 286.239 56.4551C286.239 61.2718 285.134 65.5218 282.924 69.2051C280.771 72.8884 277.824 75.7501 274.084 77.7901C270.401 79.7734 266.264 80.7651 261.674 80.7651ZM261.674 70.3951C263.828 70.3951 265.839 69.8851 267.709 68.8651C269.636 67.7884 271.166 66.2018 272.299 64.1051C273.433 62.0084 273.999 59.4584 273.999 56.4551C273.999 51.9784 272.809 48.5501 270.429 46.1701C268.106 43.7334 265.244 42.5151 261.844 42.5151C258.444 42.5151 255.583 43.7334 253.259 46.1701C250.993 48.5501 249.859 51.9784 249.859 56.4551C249.859 60.9318 250.964 64.3884 253.174 66.8251C255.441 69.2051 258.274 70.3951 261.674 70.3951Z" fill="white"/>
<path d="M352.449 32.2301C358.229 32.2301 362.875 34.0151 366.389 37.5851C369.959 41.0984 371.743 46.0284 371.743 52.3751V79.0001C371.743 79.5524 371.296 80.0001 370.743 80.0001H360.844C360.291 80.0001 359.844 79.5524 359.844 79.0001V53.9901C359.844 50.3068 358.909 47.5018 357.039 45.5751C355.169 43.5918 352.619 42.6001 349.389 42.6001C346.159 42.6001 343.58 43.5918 341.654 45.5751C339.784 47.5018 338.849 50.3068 338.849 53.9901V79.0001C338.849 79.5524 338.401 80.0001 337.849 80.0001H327.949C327.396 80.0001 326.949 79.5524 326.949 79.0001V53.9901C326.949 50.3068 326.014 47.5018 324.144 45.5751C322.274 43.5918 319.724 42.6001 316.494 42.6001C313.207 42.6001 310.6 43.5918 308.674 45.5751C306.804 47.5018 305.869 50.3068 305.869 53.9901V79.0001C305.869 79.5524 305.421 80.0001 304.869 80.0001H294.969C294.416 80.0001 293.969 79.5524 293.969 79.0001V33.9101C293.969 33.3578 294.416 32.9101 294.969 32.9101H304.369C305.197 32.9101 305.869 33.5817 305.869 34.4101V38.6051C307.399 36.6218 309.354 35.0634 311.734 33.9301C314.17 32.7968 316.834 32.2301 319.724 32.2301C323.407 32.2301 326.694 33.0234 329.584 34.6101C332.474 36.1401 334.712 38.3501 336.299 41.2401C337.829 38.5201 340.039 36.3384 342.929 34.6951C345.875 33.0518 349.049 32.2301 352.449 32.2301Z" fill="white"/>
<path d="M402.946 80.7651C398.413 80.7651 394.333 79.7734 390.706 77.7901C387.079 75.7501 384.218 72.8884 382.121 69.2051C380.081 65.5218 379.061 61.2718 379.061 56.4551C379.061 51.6384 380.109 47.3884 382.206 43.7051C384.359 40.0218 387.278 37.1884 390.961 35.2051C394.644 33.1651 398.753 32.1451 403.286 32.1451C407.819 32.1451 411.928 33.1651 415.611 35.2051C419.294 37.1884 422.184 40.0218 424.281 43.7051C426.434 47.3884 427.511 51.6384 427.511 56.4551C427.511 61.2718 426.406 65.5218 424.196 69.2051C422.043 72.8884 419.096 75.7501 415.356 77.7901C411.673 79.7734 407.536 80.7651 402.946 80.7651ZM402.946 70.3951C405.099 70.3951 407.111 69.8851 408.981 68.8651C410.908 67.7884 412.438 66.2018 413.571 64.1051C414.704 62.0084 415.271 59.4584 415.271 56.4551C415.271 51.9784 414.081 48.5501 411.701 46.1701C409.378 43.7334 406.516 42.5151 403.116 42.5151C399.716 42.5151 396.854 43.7334 394.531 46.1701C392.264 48.5501 391.131 51.9784 391.131 56.4551C391.131 60.9318 392.236 64.3884 394.446 66.8251C396.713 69.2051 399.546 70.3951 402.946 70.3951Z" fill="white"/>
<path d="M14.0077 79.7452L2.08988 79.7428C0.441318 79.7498 0.0594772 78.1101 0.598233 76.8504L33.4518 2.09808C34.0438 0.737625 34.8292 0.0835612 36.6998 0.075659L46.1364 0.0168218C48.3508 0.0168209 51.1858 1.205 49.7359 4.43485L35.5032 36.0728L18.2288 76.7688C17.0045 79.4153 15.7192 79.7452 14.0077 79.7452Z" fill="white"/>
<path d="M76.0852 79.752L64.1896 79.7321C62.3151 79.7321 61.2223 79.4467 60.3398 77.3242L47.0162 45.5712C45.9672 42.6148 44.9429 40.5659 45.9673 38.517L47.0162 35.4435L47.8088 33.3962L50.2946 27.5402C51.4115 24.9088 54.6752 24.1747 55.7585 25.9009L77.3749 77.2338C78.1613 79.0139 76.7337 79.7488 76.0852 79.752Z" fill="white"/>
<path d="M37.5613 56.2716L28.3918 77.736C28.0449 78.5439 28.7791 79.8629 29.6585 79.8591L39.6562 79.8716L50.3203 79.8845C51.1953 79.8809 51.6444 78.8122 51.3012 78.0087L41.8199 56.2533C41.0416 54.4409 38.3377 54.4586 37.5613 56.2716Z" fill="white"/>
</svg>
