<svg viewBox="0 0 50 50" xml:space="preserve" xmlns="http://www.w3.org/2000/svg" enable-background="new 0 0 50 50"><path d="M25 1C11.767 1 1 11.767 1 25s10.767 24 24 24 24-10.767 24-24S38.233 1 25 1zm0 46C12.869 47 3 37.131 3 25S12.869 3 25 3s22 9.869 22 22-9.869 22-22 22z" fill="#ffffff" class="fill-000000"></path><path d="M26 23.277V7h-2v16.277c-.595.346-1 .984-1 1.723 0 .178.031.347.074.512l-8.781 8.781 1.414 1.414 8.781-8.781c.165.043.334.074.512.074a1.994 1.994 0 0 0 1-3.723z" fill="#ffffff" class="fill-000000"></path></svg>